<?xml version="1.0" encoding="UTF-8"?>
<svg id="Calque_2" data-name="Calque 2" xmlns="http://www.w3.org/2000/svg" viewBox="0 0 33.46 29.76">
  <g id="bonhommes">
    <g id="homme2test">
      <path id="visage" class="face-zone" data-zone="tete" fill="#ddf0fb" d="M27.65,12.54c1.47,5.04.21,10.29-3.3,13.45-3.53,3.17-7.97,2.99-8.38,2.97-2.47-.14-4.91-1.1-7.02-2.92-3.94-3.38-4.52-8.78-3.37-13.58-.14-.61-.24-1.47.11-2.33,2.16-5.31,19.43-5.46,21.78,0,.38.88.31,1.78.18,2.42Z"/>
      <g id="Yeux" class="face-zone" data-zone="yeux">
        <g id="oeil_D" data-name="oeil D">
          <circle fill="#ff5852" cx="21.96" cy="16.37" r="1.64"/>
          <path fill="#009dc1" d="M21.54,14.22c1.08-.12,2.18.12,3.1.69.28.17,1.21.8,1.05,1.14-.47.67-.79,1.34-1.46,1.85-1.58,1.2-4.2,1.06-5.57-.39-.63-.67-.59-.95-.04-1.65.66-.85,1.85-1.51,2.92-1.63ZM20.31,15.54c-.28.16-1.3.83-1.24,1.19.06.32,1.18.85,1.5.95.92.28,1.52.26,2.41-.09.74-.3,1.39-.79,1.69-1.55-.59-.54-1.19-.74-1.96-.86-1.05-.16-1.46-.18-2.41.36Z"/>
        </g>
        <g id="oeil_G" data-name="oeil G">
          <circle fill="#ff5852" cx="11.01" cy="16.43" r="1.64"/>
          <path fill="#009dc1" d="M10.29,14.23c1.55-.19,3.34.47,4.25,1.77.49.7.34.98-.23,1.55-1.71,1.7-4.74,1.55-6.24-.35-.19-.24-.77-1.16-.7-1.41.06-.22,1.16-.97,1.41-1.09.4-.2,1.07-.41,1.5-.46ZM10.04,15.18c-.62.16-1.21.42-1.69.86.27.72.86,1.15,1.51,1.46.99.47,1.45.45,2.5.18.4-.1,1.51-.5,1.59-.95.09-.45-1.17-1.12-1.5-1.28-.98-.48-1.32-.54-2.41-.27Z"/>
        </g>
      </g>
      <path id="cheveux" fill="#0d498a" d="M4.83,21.15c-.46-1.66-.64-3.39-.58-5.11l-2.32-1.14C.07,13.1-.44,10.76.37,8.3c.06-.17.78-1.82.94-1.7.32,1.51,1.26,2.8,2.59,3.57-.55-2.34-.31-4.84,1.04-6.86.48-.71,1.07-1.21,1.69-1.79.16,1.43.75,2.74,1.96,3.57,1.34-2.03,3.13-3.63,5.44-4.46.52-.19,1.83-.62,2.32-.62h1.92l-1.03,1.51-.44,1.34c2.25-.77,4.88-.64,7.19-.13,2.66.59,5.18,1.94,6.87,4.11-1.49-.18-3.04-.56-4.46.09,1.08,1.17,2.65,2.03,4.19,2.41.2.05.88.22,1.03.22h1.83c-.13.47-.41.92-.72,1.29-.16.2-.84.73-.87.78,0,0-.41.35-.45.58-.16.76-.58,1.91-1.08,2.48,1.01.06,3.35-3.74,3.12-2.75-.51,2.27-1.32,6.8-4.35,7.16-.29.03-1.32,3.69-1.36,3.76-.06.1-1.24,1.95-1.43,2.18-4.91,6.08-14.01,6.37-19.14.41-.25-.3-1.13-1.71-1.22-1.77l-1.1-2.52ZM24.61,13.3c-.79.76-4.11.73-5.21.61-2.28-.25-4.76-1.02-6.66-2.31.31,1.4,1.57,2.11,2.59,2.94-3.3.77-7.09,0-9.73-2.14-1.15,4.81-.64,10.22,3.3,13.61,4.62,3.98,10.79,3.88,15.4-.05,3.76-3.22,4.25-8.23,3.35-12.85-1.04.38-1.89.29-2.94.09"/>
      <path id="bouchz" class="face-zone" data-zone="bouche" fill="#129fd4" d="M14.5,23.05c.17-.01.34.07.51.07,1.04,0,2.09,0,3.13,0,.21,0,.44-.1.6-.08.56.08.56.84.02.96-1.31-.14-3.02.19-4.28,0-.65-.1-.64-.9.02-.96Z"/>
    </g>
  </g>
</svg>