<?xml version="1.0" encoding="UTF-8"?>
<svg id="Calque_2" data-name="Calque 2" xmlns="http://www.w3.org/2000/svg" viewBox="0 0 25.34 28.33">
  <g id="bonhommes">
    <g id="homme1test">
      <g id="casquette">
        <path fill="#f7625f" d="M17.3,11l-9.1-.04v-1.29c.82-.18,1.7-.06,2.55-.09,1.74-.06,3.33-.1,5.08,0,.24.01,1.48-.09,1.48.13v1.29Z"/>
        <path fill="#0d498a" d="M.71,15.27c.03,1.63.16,3.22.61,4.79.11.39.53,1.22.56,1.49l.39.86c2.63,4.15,7.56,6.57,12.48,5.76,3.45-.56,6.81-2.76,8.56-5.76l.44-.72c.83-2.01,1.18-4.15,1.17-6.32l.42-3.39c-.32-4.56-2.28-9.43-6.4-11.21C18.56.6,16.49,0,16.09,0h-5.91c-.35.04-.95.18-1.34.31C3.5,2.12.27,6.47,0,12.18M17.21,8.86l-2.63-.18c-1.24,0-2.44.06-3.66.09-.88.03-1.76,0-2.63.09,1.02-3.79,7.94-3.81,8.93,0ZM8.19,9.67c.82-.18,1.7-.06,2.55-.09,1.74-.06,3.33-.1,5.08,0,.24.01,1.48-.09,1.48.13v1.29l-9.1-.04v-1.29ZM4.94,24.48c-3.11-2.77-3.85-7.3-3.21-11.25,1.42-.47,2.89-.83,4.38-1.05,4.12-.61,9.06-.58,13.18,0,1.57.22,3.09.61,4.61,1.06l.19,2.27c.63,10.38-11.45,15.84-19.15,8.97Z"/>
      </g>
      <path id="visage" class="face-zone" data-zone="tete" fill="#ddf0fb" d="M23.9,13.21l.19,2.27c.63,10.38-11.45,15.84-19.15,8.97-3.11-2.77-3.85-7.3-3.21-11.25,1.42-.47,2.89-.83,4.38-1.05,4.12-.61,9.06-.58,13.18,0,1.57.22,3.09.61,4.61,1.06Z"/>
      <path id="front" fill="#ddf0fb" d="M17.21,8.86l-2.63-.18c-1.24,0-2.44.06-3.66.09-.88.03-1.76,0-2.63.09,1.02-3.79,7.94-3.81,8.93,0Z"/>
      <g id="Yeux" class="face-zone" data-zone="yeux">
        <g id="oeil_D" data-name="oeil D">
          <circle fill="#ff5852" cx="18.23" cy="15.65" r="1.64"/>
          <path fill="#009dc1" d="M17.82,13.51c1.08-.12,2.18.12,3.1.69.28.17,1.21.8,1.05,1.14-.47.67-.79,1.34-1.46,1.85-1.58,1.2-4.2,1.06-5.57-.39-.63-.67-.59-.95-.04-1.65.66-.85,1.85-1.51,2.92-1.63ZM16.59,14.83c-.28.16-1.3.83-1.24,1.19.06.32,1.18.85,1.5.95.92.28,1.52.26,2.41-.09.74-.3,1.39-.79,1.69-1.55-.59-.54-1.19-.74-1.96-.86-1.05-.16-1.46-.18-2.41.36Z"/>
        </g>
        <g id="oeil_G" data-name="oeil G">
          <circle fill="#ff5852" cx="7.29" cy="15.71" r="1.64"/>
          <path fill="#009dc1" d="M6.56,13.52c1.55-.19,3.34.47,4.25,1.77.49.7.34.98-.23,1.55-1.71,1.7-4.74,1.55-6.24-.35-.19-.24-.77-1.16-.7-1.41.06-.22,1.16-.97,1.41-1.09.4-.2,1.07-.41,1.5-.46ZM6.32,14.47c-.62.16-1.21.42-1.69.86.27.72.86,1.15,1.51,1.46.99.47,1.45.45,2.5.18.4-.1,1.51-.5,1.59-.95.09-.45-1.17-1.12-1.5-1.28-.98-.48-1.32-.54-2.41-.27Z"/>
        </g>
      </g>
      <path id="bouche" class="face-zone" data-zone="bouche" fill="#009dc1" d="M10.73,22.66c.17-.01.34.07.51.07,1.04,0,2.09,0,3.13,0,.21,0,.44-.1.6-.08.56.08.56.84.02.96-1.31-.14-3.02.19-4.28,0-.65-.1-.64-.9.02-.96Z"/>
    </g>
  </g>
</svg>