<?xml version="1.0" encoding="UTF-8"?>
<svg id="Calque_2" data-name="Calque 2" xmlns="http://www.w3.org/2000/svg" viewBox="0 0 37.9 30.71">
  <g id="bonhommes">
    <g id="femme2test">
      <path id="visage" class="face-zone" data-zone="tete" fill="#ddf0fb" d="M29.73,13.17c.93,4.84-.45,9.61-3.78,12.34-2.74,2.25-5.98,2.44-6.32,2.45-2.05.1-4.14-.43-6.13-1.61-4.82-2.86-5.98-8.06-5.09-13.33-.31-1.96.86-3.36,1.34-4.22,2.8-5,13.96-5.38,18.27.17,1.13,1.45,1.53,3.04,1.7,4.2Z"/>
      <g id="Yeux" class="face-zone" data-zone="yeux">
        <g id="oeil_D" data-name="oeil D">
          <circle fill="#ff5852" cx="24.49" cy="16.73" r="1.64"/>
          <path fill="#009dc1" d="M24.08,14.58c1.08-.12,2.18.12,3.1.69.28.17,1.21.8,1.05,1.14-.47.67-.79,1.34-1.46,1.85-1.58,1.2-4.2,1.06-5.57-.39-.63-.67-.59-.95-.04-1.65.66-.85,1.85-1.51,2.92-1.63ZM22.85,15.9c-.28.16-1.3.83-1.24,1.19.06.32,1.18.85,1.5.95.92.28,1.52.26,2.41-.09.74-.3,1.39-.79,1.69-1.55-.59-.54-1.19-.74-1.96-.86-1.05-.16-1.46-.18-2.41.36Z"/>
        </g>
        <g id="oeil_G" data-name="oeil G">
          <circle fill="#ff5852" cx="13.55" cy="16.79" r="1.64"/>
          <path fill="#009dc1" d="M12.82,14.59c1.55-.19,3.34.47,4.25,1.77.49.7.34.98-.23,1.55-1.71,1.7-4.74,1.55-6.24-.35-.19-.24-.77-1.16-.7-1.41.06-.22,1.16-.97,1.41-1.09.4-.2,1.07-.41,1.5-.46ZM12.58,15.54c-.62.16-1.21.42-1.69.86.27.72.86,1.15,1.51,1.46.99.47,1.45.45,2.5.18.4-.1,1.51-.5,1.59-.95.09-.45-1.17-1.12-1.5-1.28-.98-.48-1.32-.54-2.41-.27Z"/>
        </g>
      </g>
      <path id="Bouche" class="face-zone" data-zone="bouche" fill="#009dc1" d="M21.6,22.74c.37.37-.25,1.24-.51,1.54-.9,1.04-2.51,1.28-3.61.4-.38-.3-1.32-1.46-.95-1.93.21-.26.72-.04,1.03-.03,1.04.02,2.09.01,3.13,0,.27,0,.68-.21.91.02Z"/>
      <g id="cheveux">
        <path fill="#0d498a" d="M24.49,3.69c.11.36.79.46,1.13.61,2.75,1.25,4.99,3.62,5.85,6.55.12.4.34,1.82.51,1.99.14.14.27.15.45.13v.98c3.2.48,5.93,4.91,3.57,7.64-.12.14-.81.66-.72.76.41.02.77.33,1.07.58,2.37,1.96,1.95,5.05-.8,6.34-2.1.99-5,.68-6.92-.58-1.6,2.77-5.84,2.68-7.33-.17-1.42.4-2.91.28-4.35.07-1.39,2.76-5.69,2.79-7.16.1-2.52,1.55-7.07,1.81-8.77-1.05-1.18-1.99-.05-4.57,2.04-5.29.13-.14-.44-.46-.54-.58-2.48-2.74-.32-6.6,2.72-7.73.14-.05.47-.07.49-.09.1-.1-.14-.78-.09-.98.1,0,.45-.1.49-.17s.25-1.5.33-1.81c.76-2.75,2.77-5.09,5.24-6.45.52-.28,1.08-.6,1.52-.85,1.35-.78,4.31-.64,5.8-.31.32.07.94.36,1.13.38.26.02,1.38-.32,1.86-.34.89-.04,1.65.27,2.46.27ZM21.36,11.19c-.12-.03-.15.02-.22.09-.42.37-.85,1.03-1.33,1.43-2.33,1.96-6.14,2.14-8.93,1.16-.24-.08-1.03-.52-1.09-.53-.04,0-.69.43-.74.48-.4.43-.41,3.57-.36,4.28.57,8.86,10.85,13,17.5,7.14,3.11-2.74,3.68-6.71,3.12-10.67-2.95.4-6.37-.78-7.94-3.39Z"/>
        <path fill="#0d498a" d="M4.58,12.79C.88,12.45-.72,8.67.3,5.34,2-.18,10.69-2.42,13.06,3.51c-.97.2-1.91.52-2.76,1.03-3.05,1.85-4.39,4.6-4.82,8.03-.02.18,0,.22-.18.3"/>
        <path fill="#0d498a" d="M32.52,12.88c.05-2.88-1.54-5.68-3.71-7.5-.97-.81-2.78-1.8-4.06-1.79,1.57-4.32,7.14-4.46,10.35-1.82,4.28,3.52,3.67,10.83-2.58,11.1Z"/>
        <path fill="#129fd4" d="M24.75,3.6c1.28-.01,3.09.98,4.06,1.79,2.17,1.81,3.76,4.62,3.71,7.5l-.09.09c-.18.02-.31.01-.45-.13-.17-.17-.39-1.59-.51-1.99-.87-2.93-3.1-5.3-5.85-6.55-.34-.15-1.03-.24-1.13-.61.04,0,.17-.09.27-.09Z"/>
        <path fill="#129fd4" d="M13.24,3.69c-.44.25-1,.56-1.52.85-2.47,1.36-4.48,3.71-5.24,6.45-.09.31-.28,1.73-.33,1.81s-.39.17-.49.17c-.05,0-.22-.08-.36-.09.18-.09.16-.13.18-.3.43-3.43,1.77-6.19,4.82-8.03.85-.51,1.79-.83,2.76-1.03.02.05.14.12.18.18Z"/>
      </g>
    </g>
  </g>
</svg>