<svg xmlns="http://www.w3.org/2000/svg" viewBox="0 0 400 300" width="400" height="300">
  <!-- Background -->
  <rect width="400" height="300" fill="#f0f8ff" rx="20"/>
  
  <!-- Clouds -->
  <ellipse cx="100" cy="80" rx="40" ry="25" fill="#ffffff" stroke="#009dc1" stroke-width="2"/>
  <ellipse cx="130" cy="75" rx="35" ry="22" fill="#ffffff" stroke="#009dc1" stroke-width="2"/>
  <ellipse cx="70" cy="75" rx="30" ry="20" fill="#ffffff" stroke="#009dc1" stroke-width="2"/>
  
  <ellipse cx="300" cy="100" rx="45" ry="28" fill="#ffffff" stroke="#009dc1" stroke-width="2"/>
  <ellipse cx="330" cy="95" rx="38" ry="24" fill="#ffffff" stroke="#009dc1" stroke-width="2"/>
  <ellipse cx="270" cy="95" rx="32" ry="21" fill="#ffffff" stroke="#009dc1" stroke-width="2"/>
  
  <!-- Musical notes -->
  <circle cx="200" cy="150" r="12" fill="#009dc1"/>
  <rect x="212" y="120" width="4" height="40" fill="#009dc1"/>
  <path d="M 216 120 Q 230 115 230 125" fill="#009dc1"/>
  
  <circle cx="240" cy="170" r="10" fill="#009dc1" opacity="0.7"/>
  <rect x="250" y="145" width="3" height="35" fill="#009dc1" opacity="0.7"/>
  
  <!-- Playful elements -->
  <circle cx="150" cy="200" r="8" fill="#ff5852" opacity="0.5"/>
  <circle cx="250" cy="220" r="10" fill="#009dc1" opacity="0.3"/>
  
  <!-- Stars -->
  <path d="M 80 180 L 85 190 L 95 190 L 87 196 L 90 206 L 80 200 L 70 206 L 73 196 L 65 190 L 75 190 Z" 
        fill="#009dc1" opacity="0.4"/>
  <path d="M 320 180 L 324 188 L 332 188 L 326 193 L 328 201 L 320 196 L 312 201 L 314 193 L 308 188 L 316 188 Z" 
        fill="#ff5852" opacity="0.4"/>
  
  <!-- Decorative bubbles -->
  <circle cx="50" cy="250" r="15" fill="#009dc1" opacity="0.15"/>
  <circle cx="350" cy="240" r="20" fill="#009dc1" opacity="0.15"/>
  <circle cx="200" cy="50" r="18" fill="#ff5852" opacity="0.15"/>
</svg>
