<?xml version="1.0" encoding="UTF-8"?>
<svg id="Calque_2" data-name="Calque 2" xmlns="http://www.w3.org/2000/svg" viewBox="0 0 40.99 40.99">
  <defs>
    <style>
      .cls-1 {
        fill: #ff5852;
      }

      .cls-2 {
        fill: #009dc1;
      }

      .cls-3 {
        fill: none;
        stroke: #009dc1;
        stroke-miterlimit: 10;
        stroke-width: 2px;
      }

      .cls-4 {
        fill: #005291;
      }
    </style>
  </defs>
  <g id="pictogrammes">
    <g id="nb_de_fixation" data-name="nb de fixation">
      <circle id="fond" class="cls-4" cx="20.49" cy="20.49" r="20.49"/>
      <path id="oeil" class="cls-3" d="M19.54,15.05c3.98-.29,7.59,1.47,10.46,4.1.48.44,1.45,1.36,1.8,1.87s-.39,1.11-.73,1.49c-2.02,2.24-5.18,4.29-8.14,4.93-5.4,1.16-10.41-1.79-13.75-5.81-.29-.47.3-.96.61-1.31,2.34-2.6,6.2-5.01,9.75-5.27Z"/>
      <circle id="pupille" class="cls-1" cx="20.49" cy="21.35" r="4.14"/>
      <path id="croix" class="cls-4" d="M23.3,19.38c.15-.48-.57-1.11-1.02-.78l-1.71,1.79-1.9-1.82c-.58-.26-1.24.41-.89.97.28.45,1.16,1.11,1.55,1.55.08.09.14.18.18.29.02.24-1.63,1.53-1.8,1.91-.22.5.48,1.09.95.87l1.83-1.82,1.83,1.82c.47.26,1.13-.45.95-.87l-1.8-1.82,1.82-2.08Z"/>
      <g id="basD">
        <path class="cls-2" d="M36.51,31.36s0,.04-.01.06c.01.02.01.04.01.06,0,.41-.34.75-.76.75h-3.56c-.42,0-.76-.34-.76-.75s.34-.76.76-.76h2.8v-2.82c0-.42.34-.76.76-.76s.76.34.76.76v3.46Z"/>
      </g>
      <g id="hautD">
        <path class="cls-2" d="M10.29,10.53c0,.42-.34.76-.76.76h-2.81v2.87c0,.42-.33.76-.75.76s-.76-.34-.76-.76v-3.63c0-.42.34-.76.76-.76h3.56c.42,0,.76.34.76.76Z"/>
      </g>
      <g id="hautD-2" data-name="hautD">
        <path class="cls-2" d="M35.42,10.57v3.62c0,.42-.34.76-.76.76s-.76-.34-.76-.76v-2.87h-2.8c-.42,0-.76-.34-.76-.75s.34-.76.76-.76h3.56c.42,0,.76.34.76.76Z"/>
      </g>
      <g id="hautG">
        <path class="cls-2" d="M10.37,31.72c0,.42-.34.76-.76.76h-3.56c-.42,0-.76-.34-.76-.76,0-.02,0-.04.01-.06-.01-.02-.01-.04-.01-.06v-3.46c0-.42.34-.75.76-.75s.76.33.76.75v2.82h2.8c.42,0,.76.34.76.76Z"/>
      </g>
    </g>
  </g>
</svg>