<?xml version="1.0" encoding="UTF-8"?>
<svg id="Calque_2" data-name="Calque 2" xmlns="http://www.w3.org/2000/svg" viewBox="0 0 40.99 40.99">
  <defs>
    <style>
      .cls-1 {
        fill: #ff5852;
      }

      .cls-2 {
        fill: #009dc1;
      }

      .cls-3 {
        fill: none;
        stroke: #009dc1;
        stroke-miterlimit: 10;
        stroke-width: 2px;
      }

      .cls-4 {
        fill: #005291;
      }
    </style>
  </defs>
  <g id="pictogrammes">
    <g id="temps_de_fixation" data-name="temps de fixation">
      <circle id="fond" class="cls-4" cx="20.49" cy="20.49" r="20.49"/>
      <path id="pupille" class="cls-3" d="M20.05,14.72c3.98-.29,7.59,1.47,10.46,4.1.48.44,1.45,1.36,1.8,1.87s-.39,1.11-.73,1.49c-2.02,2.24-5.18,4.29-8.14,4.93-5.4,1.16-10.41-1.79-13.75-5.81-.29-.47.3-.96.61-1.31,2.34-2.6,6.2-5.01,9.75-5.27Z"/>
      <g id="basD">
        <path class="cls-2" d="M36.5,31.18s0,.04-.01.06c.01.02.01.04.01.06,0,.42-.34.76-.76.76h-3.56c-.42,0-.76-.34-.76-.76s.34-.76.76-.76h2.8v-2.82c0-.42.34-.76.76-.76s.76.34.76.76v3.46Z"/>
      </g>
      <g id="basG">
        <path class="cls-2" d="M10.62,31.23c0,.42-.34.76-.76.76h-3.46s-.04,0-.06-.01c-.02.01-.04.01-.06.01-.41,0-.75-.34-.75-.76v-3.56c0-.42.34-.76.75-.76s.76.34.76.76v2.8h2.82c.42,0,.76.34.76.76Z"/>
      </g>
      <g id="hautG">
        <path class="cls-2" d="M10.28,10.35c0,.42-.34.76-.76.76h-2.81v2.82c0,.42-.33.76-.75.76s-.76-.34-.76-.76v-3.46s0-.04,0-.06c0-.02,0-.04,0-.06,0-.42.34-.75.76-.75h3.56c.42,0,.76.33.76.75Z"/>
      </g>
      <g id="hautD">
        <path class="cls-2" d="M36.35,10.42v3.56c0,.42-.34.76-.76.76s-.76-.34-.76-.76v-2.8h-2.82c-.42,0-.75-.34-.75-.76s.33-.76.75-.76h3.46s.04,0,.06.01c.02-.01.04-.01.06-.01.42,0,.76.34.76.76Z"/>
      </g>
      <circle class="cls-1" cx="21" cy="21.02" r="4.14"/>
      <circle class="cls-4" cx="21" cy="21.2" r=".65"/>
      <path class="cls-4" d="M21,20.05c.12,0,.22.04.31.09v-2.26c0-.17-.13-.3-.3-.3h-.03c-.17,0-.3.13-.3.3v2.26c.09-.05.2-.09.31-.09Z"/>
      <path class="cls-4" d="M23.83,20.91h-1.75s-.01,0-.02,0c.04.09.07.18.07.28s-.03.2-.07.28c0,0,.01,0,.02,0h1.75c.14,0,.25-.11.25-.25v-.09c0-.14-.11-.25-.25-.25Z"/>
    </g>
  </g>
</svg>