<?xml version="1.0" encoding="UTF-8"?>
<svg id="Calque_2" data-name="Calque 2" xmlns="http://www.w3.org/2000/svg" viewBox="0 0 40.99 40.99">
  <defs>
    <style>
      .cls-1 {
        fill: #ff5852;
      }

      .cls-2 {
        fill: #009dc1;
      }

      .cls-3 {
        fill: #005291;
      }
    </style>
  </defs>
  <g id="pictogrammes">
    <g id="TEMPS_PASSÉ" data-name="TEMPS PASSÉ">
      <circle class="cls-3" cx="20.5" cy="20.5" r="20.5"/>
      <path class="cls-2" d="M29.12,9.68s.02.78,0,.96c-.29,3.27-1.85,6.21-4.27,8.39-.32.29-1.6,1.08-1.6,1.42s1.07,1.01,1.37,1.28c2.43,2.22,4.29,4.86,4.58,8.26.02.22-.04,1.28,0,1.33.05.06.63-.04.99.52.45.72.44,1.85-.44,2.19l-18.22.05c-1.42-.13-1.34-2.23-.13-2.71.11-.04.35-.03.36-.05.04-.03-.01-.78,0-.96.37-4.15,2.57-7.26,5.88-9.63.41-.55-.73-1.05-1.11-1.38-2.4-2.12-4.11-4.77-4.57-7.99-.04-.26-.06-1.52-.11-1.58-.03-.03-.64-.14-.85-.3-.63-.48-.73-2.15.18-2.45,6.05-.23,12.17-.04,18.24-.09.97.22,1.15,1.25.8,2.08-.37.88-1.03.58-1.12.67ZM27.37,9.68h-13.76v1.33c0,2.1,1.98,5.13,3.48,6.51,1.14,1.04,2.47,1.32,2.3,3.21-.12,1.36-1.32,1.78-2.21,2.56-2.32,2.04-3.77,4.9-3.76,8.03h14.13c.08-3.22-1.5-6.04-3.85-8.12-.91-.81-2.07-1.18-2.12-2.66-.05-1.59,1.22-2.05,2.21-2.94,1.53-1.38,3.58-4.49,3.58-6.61v-1.33Z"/>
      <path class="cls-1" d="M14.26,30.62c-.06-.87.9-2.87,1.79-3.02.55-.09,1.07.09,1.6.18-.17-1.51,1.36-2.59,2.57-1.52l.55.78c.72-1.86,3.24-1.44,3.03.64.43.03.78-.16,1.22-.07.91.19,1.75,2.13,1.72,3.01h-12.48Z"/>
      <path class="cls-1" d="M23.11,13.02c.07-.04.37-.62.68-.74,1.04-.42,1.77.43,1.37,1.46-.69,1.79-2.58,2.41-3.5,3.65-.4.54-.33,1.44-1.16,1.49-.69.04-.82-.98-1.18-1.44-.91-1.18-2.66-1.85-3.4-3.39-.57-1.19.09-2.04,1.37-1.83.96.15,1.21,1.43,1.94,1.55.85.14,1.02-.33,1.63-.65.49-.26.93-.32,1.49-.26.21.02.65.24.76.17Z"/>
      <circle class="cls-1" cx="20.5" cy="21.61" r=".88"/>
      <circle class="cls-1" cx="20.47" cy="24.35" r=".88"/>
    </g>
  </g>
</svg>